<?xml version="1.0" encoding="UTF-8" standalone="no"?>
<!-- Created with Inkscape (http://www.inkscape.org/) -->

<svg
   xmlns:dc="http://purl.org/dc/elements/1.1/"
   xmlns:cc="http://creativecommons.org/ns#"
   xmlns:rdf="http://www.w3.org/1999/02/22-rdf-syntax-ns#"
   xmlns:svg="http://www.w3.org/2000/svg"
   xmlns="http://www.w3.org/2000/svg"
   xmlns:sodipodi="http://sodipodi.sourceforge.net/DTD/sodipodi-0.dtd"
   xmlns:inkscape="http://www.inkscape.org/namespaces/inkscape"
   width="210mm"
   height="297mm"
   viewBox="0 0 744.09448819 1052.3622047"
   id="svg2"
   version="1.1"
   inkscape:version="0.91 r13725"
   sodipodi:docname="particle-heart-001.svg"
   inkscape:export-filename="C:\Users\Chris\Documents\GitHub\particle-system\examples\images\hearts.png"
   inkscape:export-xdpi="90"
   inkscape:export-ydpi="90">
  <defs
     id="defs4" />
  <sodipodi:namedview
     id="base"
     pagecolor="#ffffff"
     bordercolor="#666666"
     borderopacity="1.0"
     inkscape:pageopacity="0.0"
     inkscape:pageshadow="2"
     inkscape:zoom="8"
     inkscape:cx="-63.942907"
     inkscape:cy="501.49732"
     inkscape:document-units="px"
     inkscape:current-layer="layer1"
     showgrid="true"
     inkscape:object-paths="true"
     inkscape:snap-intersection-paths="true"
     inkscape:object-nodes="true"
     inkscape:snap-smooth-nodes="true"
     inkscape:snap-midpoints="true"
     inkscape:snap-nodes="false"
     inkscape:window-width="1920"
     inkscape:window-height="1017"
     inkscape:window-x="-8"
     inkscape:window-y="-8"
     inkscape:window-maximized="1">
    <inkscape:grid
       type="xygrid"
       id="grid4140" />
  </sodipodi:namedview>
  <metadata
     id="metadata7">
    <rdf:RDF>
      <cc:Work
         rdf:about="">
        <dc:format>image/svg+xml</dc:format>
        <dc:type
           rdf:resource="http://purl.org/dc/dcmitype/StillImage" />
        <dc:title />
      </cc:Work>
    </rdf:RDF>
  </metadata>
  <g
     inkscape:label="Layer 1"
     inkscape:groupmode="layer"
     id="layer1">
    <path
       style="fill:#ff0000;fill-opacity:1;fill-rule:evenodd;stroke:none;stroke-width:1px;stroke-linecap:butt;stroke-linejoin:miter;stroke-opacity:1"
       d="M -139.04492 497.36133 C -143.04527 497.35233 -145.53878 499.98308 -145.52148 503.58984 C -145.50418 507.1966 -143.76245 509.48823 -140.00781 512.21875 C -136.25317 514.94927 -133.64718 516.87197 -133.02148 518.61133 C -132.39578 516.87197 -129.79175 514.94927 -126.03711 512.21875 C -122.28247 509.48823 -120.53878 507.1966 -120.52148 503.58984 C -120.50418 499.98308 -122.99965 497.35233 -127 497.36133 C -131.00034 497.36993 -133.02148 500.37305 -133.02148 500.37305 C -133.02148 500.37305 -135.04458 497.36993 -139.04492 497.36133 z "
       id="path4136" />
    <path
       style="fill:#ff5d5d;fill-opacity:1;fill-rule:evenodd;stroke:none;stroke-width:1px;stroke-linecap:butt;stroke-linejoin:miter;stroke-opacity:1"
       d="m -97.145558,508.61864 c 1.294536,-1.8467 0.883251,-3.84908 -0.789915,-5.00455 -1.673318,-1.15528 -3.294557,-1.08941 -5.768187,-0.23426 -2.47364,0.85514 -4.20234,1.44042 -5.20838,1.16863 0.60236,0.85038 0.64978,2.67486 0.70107,5.29163 0.0513,2.61678 0.54896,4.1613 2.21097,5.33278 1.66198,1.1715 3.68333,0.86632 4.96961,-0.98615 1.286334,-1.85242 0.55084,-3.75494 0.55084,-3.75494 0,0 2.039579,0.0337 3.333992,-1.81314 z"
       id="path4136-4"
       inkscape:connector-curvature="0" />
    <path
       style="fill:#ffb9b9;fill-opacity:1;fill-rule:evenodd;stroke:none;stroke-width:1px;stroke-linecap:butt;stroke-linejoin:miter;stroke-opacity:1"
       d="m -70.820059,513.53316 c 2.249332,-0.27781 3.465062,-1.93279 3.200395,-3.95902 -0.264668,-2.02624 -1.40573,-3.19131 -3.709325,-4.46082 -2.303596,-1.2695 -3.904402,-2.16611 -4.379072,-3.09962 -0.228777,1.02197 -1.556671,2.28684 -3.474252,4.08714 -1.917582,1.8003 -2.735772,3.21174 -2.490553,5.24043 0.24522,2.02867 1.833945,3.33111 4.082018,3.04328 2.248079,-0.28772 3.171962,-2.1186 3.171962,-2.1186 0,0 1.349516,1.54514 3.598827,1.26721 z"
       id="path4136-4-4"
       inkscape:connector-curvature="0" />
    <path
       style="fill:#ffe1e1;fill-opacity:1;fill-rule:evenodd;stroke:none;stroke-width:1px;stroke-linecap:butt;stroke-linejoin:miter;stroke-opacity:1"
       d="m -49.824934,511.76905 c 0.417357,1.67489 1.78085,2.44123 3.288245,2.0542 1.507387,-0.38706 2.28209,-1.35695 3.029285,-3.21557 0.747204,-1.85862 1.27733,-3.15153 1.939273,-3.59651 -0.793715,-0.0787 -1.872456,-0.96584 -3.410388,-2.24941 -1.537921,-1.28358 -2.67963,-1.77211 -4.190669,-1.39956 -1.511047,0.37252 -2.349085,1.69378 -1.924076,3.36675 0.425115,1.67293 1.893467,2.20271 1.893467,2.20271 0,0 -1.042775,1.16257 -0.625137,2.83739 z"
       id="path4136-4-4-5"
       inkscape:connector-curvature="0" />
    <path
       style="fill:#fffbfb;fill-opacity:1;fill-rule:evenodd;stroke:none;stroke-width:1px;stroke-linecap:butt;stroke-linejoin:miter;stroke-opacity:1"
       d="m -20.277088,498.06962 c -3.357199,-0.66942 -5.88755,1.12699 -6.469504,4.15813 -0.58196,3.03114 0.503079,5.24359 3.203954,8.15711 2.700874,2.91351 4.569282,4.95849 4.806975,6.52235 0.812999,-1.35691 3.318992,-2.54026 6.923005,-4.2119 3.6040131,-1.67165 5.4453792,-3.30768 6.0563851,-6.33311 0.6110036,-3.02541 -1.0475121,-5.64659 -4.4077451,-6.30061 -3.360089,-0.6547 -5.555428,1.53253 -5.555428,1.53253 0,0 -1.200328,-2.85571 -4.557642,-3.5245 z"
       id="path4136-4-4-5-2"
       inkscape:connector-curvature="0" />
    <path
       inkscape:connector-curvature="0"
       style="fill:#ff3333;fill-opacity:1;fill-rule:evenodd;stroke:none;stroke-width:1px;stroke-linecap:butt;stroke-linejoin:miter;stroke-opacity:1"
       d="m -132.9191,529.0336 c -1.96951,-1.14393 -3.94807,-0.55752 -4.96701,1.2254 -1.01881,1.78299 -0.81316,3.40876 0.25987,5.82439 1.07304,2.41562 1.80996,4.10582 1.62291,5.14149 0.80393,-0.67918 2.63534,-0.88519 5.26407,-1.16162 2.62874,-0.27645 4.14113,-0.90939 5.17712,-2.68245 1.03613,-1.77299 0.55526,-3.7808 -1.41931,-4.91595 -1.97451,-1.13526 -3.8263,-0.2307 -3.8263,-0.2307 0,0 -0.14179,-2.05674 -2.11135,-3.20056 z"
       id="path4136-9" />
    <path
       inkscape:connector-curvature="0"
       style="fill:#ff7f7f;fill-opacity:1;fill-rule:evenodd;stroke:none;stroke-width:1px;stroke-linecap:butt;stroke-linejoin:miter;stroke-opacity:1"
       d="m -110.25326,528.51183 c -3.14594,0.5823 -4.72019,3.01767 -4.17537,5.85037 0.54478,2.83272 2.25149,4.37761 5.60515,5.97106 3.35365,1.59346 5.6851,2.71953 6.43313,3.99467 0.23569,-1.45945 2.00135,-3.35316 4.550688,-6.0526 2.549342,-2.69943 3.580991,-4.75738 3.063377,-7.59519 -0.51761,-2.8378 -2.866753,-4.53829 -6.010075,-3.94203 -3.14336,0.59606 -4.29017,3.25282 -4.29017,3.25282 0,0 -2.03082,-2.06152 -5.17673,-1.4791 z"
       id="path4136-4-9" />
    <path
       inkscape:connector-curvature="0"
       style="fill:#ffd3d3;fill-opacity:1;fill-rule:evenodd;stroke:none;stroke-width:1px;stroke-linecap:butt;stroke-linejoin:miter;stroke-opacity:1"
       d="m -74.454734,541.49705 c 1.690916,0.9529 3.370199,0.43252 4.219243,-1.09772 0.849094,-1.53018 0.656175,-2.91339 -0.284201,-4.96022 -0.940377,-2.04681 -1.586524,-3.47911 -1.43829,-4.36364 -0.677734,0.58741 -2.236078,0.78268 -4.47307,1.04657 -2.236991,0.26387 -3.518898,0.81951 -4.382574,2.3415 -0.863629,1.52206 -0.432412,3.22766 1.262378,4.17366 1.694383,0.94672 3.262923,0.15542 3.262923,0.15542 0,0 0.142985,1.75106 1.833591,2.7045 z"
       id="path4136-4-4-9" />
    <path
       inkscape:connector-curvature="0"
       style="fill:#fff5f5;fill-opacity:1;fill-rule:evenodd;stroke:none;stroke-width:1px;stroke-linecap:butt;stroke-linejoin:miter;stroke-opacity:1"
       d="m -53.26283,537.97822 c -0.440593,2.49042 0.92608,4.32955 3.174186,4.71129 2.248097,0.38173 3.863601,-0.45381 5.972717,-2.49498 2.109114,-2.04116 3.590133,-3.45488 4.741465,-3.65527 -1.015148,-0.57897 -1.929194,-2.40994 -3.221108,-5.04541 -1.291914,-2.63546 -2.528114,-3.97057 -4.772452,-4.37385 -2.244338,-0.40328 -4.154297,0.86455 -4.584023,3.35688 -0.43008,2.49225 1.219128,4.07759 1.219128,4.07759 0,0 -2.089232,0.93335 -2.529913,3.42375 z"
       id="path4136-4-4-5-7" />
    <path
       inkscape:connector-curvature="0"
       style="fill:#ffffff;fill-opacity:1;fill-rule:evenodd;stroke:none;stroke-width:1px;stroke-linecap:butt;stroke-linejoin:miter;stroke-opacity:1"
       d="m -8.9725752,539.30394 c 2.2346079,-1.72829 2.4868124,-4.27622 0.9146465,-6.28015 -1.5721683,-2.00394 -3.5373683,-2.52654 -6.8141763,-2.42272 -3.276814,0.10382 -5.561987,0.15967 -6.664453,-0.53927 0.404582,1.24107 -0.215784,3.4423 -1.126767,6.59164 -0.910989,3.14935 -0.889545,5.1819 0.663325,7.20082 1.55287,2.01893 4.083148,2.40581 6.31018,0.66777 2.22724,-1.73776 2.05443,-4.28906 2.05443,-4.28906 0,0 2.428164,0.79919 4.6628148,-0.92903 z"
       id="path4136-4-4-5-2-9" />
    <path
       inkscape:connector-curvature="0"
       style="fill:#c00000;fill-opacity:1;fill-rule:evenodd;stroke:none;stroke-width:1px;stroke-linecap:butt;stroke-linejoin:miter;stroke-opacity:1"
       d="m -129.34996,560.76233 c -0.36337,-1.66201 -1.6834,-2.45693 -3.17971,-2.1195 -1.49666,0.336 -2.28863,1.27055 -3.07886,3.07988 -0.79024,1.8093 -1.35017,3.06761 -2.01525,3.48672 0.77964,0.10077 1.81657,1.00605 3.29433,2.31539 1.47772,1.30936 2.5891,1.8237 4.08863,1.50069 1.49917,-0.32443 2.36358,-1.60029 1.9936,-3.2608 -0.36914,-1.66077 -1.80208,-2.22506 -1.80208,-2.22506 0,0 1.062,-1.11514 0.69934,-2.77732 z"
       id="path4136-9-2" />
    <path
       inkscape:connector-curvature="0"
       style="fill:#e70101;fill-opacity:1;fill-rule:evenodd;stroke:none;stroke-width:1px;stroke-linecap:butt;stroke-linejoin:miter;stroke-opacity:1"
       d="m -99,569.23018 c 2.199657,-0.54283 3.21026,-2.33106 2.706396,-4.31069 -0.503873,-1.97963 -1.77508,-3.00019 -4.212586,-3.98605 -2.43752,-0.98587 -4.13283,-1.68418 -4.71507,-2.55423 -0.10545,1.04157 -1.27423,2.45426 -2.96324,4.46938 -1.689,2.0151 -2.33203,3.51311 -1.84718,5.49748 0.48486,1.98437 2.21675,3.08801 4.4138,2.53475 2.19692,-0.55378 2.89641,-2.47926 2.89641,-2.47926 0,0 1.52201,1.37219 3.72147,0.82862 z"
       id="path4136-4-9-2" />
    <path
       inkscape:connector-curvature="0"
       style="fill:#ff9999;fill-opacity:1;fill-rule:evenodd;stroke:none;stroke-width:1px;stroke-linecap:butt;stroke-linejoin:miter;stroke-opacity:1"
       d="m -75.375878,559.72773 c -1.295514,-0.63021 -2.516511,-0.16717 -3.075937,1.00512 -0.55942,1.1723 -0.353635,2.18827 0.436134,3.66191 0.789772,1.47363 1.333617,2.50536 1.264022,3.16742 0.475391,-0.46601 1.621021,-0.68155 3.266311,-0.97876 1.645296,-0.29725 2.569737,-0.76719 3.140382,-1.93407 0.570654,-1.16687 0.173564,-2.41089 -1.125058,-3.03467 -1.298337,-0.62434 -2.424422,0.0333 -2.424422,0.0333 0,0 -0.185572,-1.29077 -1.481432,-1.92025 z"
       id="path4136-4-4-9-8" />
    <path
       inkscape:connector-curvature="0"
       style="fill:#ffd3d3;fill-opacity:1;fill-rule:evenodd;stroke:none;stroke-width:1px;stroke-linecap:butt;stroke-linejoin:miter;stroke-opacity:1"
       d="m -50.25145,568.99493 c 0.696544,2.00302 2.450027,2.78928 4.25145,2.14836 1.801414,-0.64095 2.641613,-1.91369 3.349492,-4.27078 0.707898,-2.35711 1.212979,-3.99792 1.9735,-4.61587 -0.979893,-0.008 -2.39829,-0.97388 -4.422565,-2.37365 -2.024258,-1.39978 -3.475442,-1.87077 -5.282931,-1.24716 -1.807498,0.62359 -2.686195,2.33327 -1.980422,4.33305 0.705979,1.99971 2.561328,2.48493 2.561328,2.48493 0,0 -1.146818,1.53826 -0.449852,3.54112 z"
       id="path4136-4-4-5-7-8" />
    <path
       inkscape:connector-curvature="0"
       style="fill:#fff9f9;fill-opacity:1;fill-rule:evenodd;stroke:none;stroke-width:1px;stroke-linecap:butt;stroke-linejoin:miter;stroke-opacity:1"
       d="m -14.014503,557.65256 c -1.315618,-1.87484 -3.369798,-2.17481 -5.051877,-0.97686 -1.682082,1.19796 -2.179206,2.76992 -2.218309,5.42769 -0.0391,2.65778 -0.07977,4.51063 -0.687287,5.37724 1.020347,-0.28101 2.779787,0.30416 5.29618,1.16036 2.516393,0.85619 4.16335,0.91524 5.856843,-0.26653 1.6934964,-1.18176 2.1019549,-3.21648 0.778034,-5.08547 -1.323788,-1.86908 -3.396451,-1.82512 -3.396451,-1.82512 0,0 0.738546,-1.93651 -0.577133,-3.81131 z"
       id="path4136-4-4-5-2-9-2" />
    <path
       inkscape:connector-curvature="0"
       style="fill:#ea0000;fill-opacity:1;fill-rule:evenodd;stroke:none;stroke-width:1px;stroke-linecap:butt;stroke-linejoin:miter;stroke-opacity:1"
       d="m -136.53212,593.6712 c -0.0951,1.28058 0.6905,2.1393 1.84568,2.21647 1.1552,0.0771 1.92887,-0.42792 2.88922,-1.56744 0.96035,-1.13952 1.63571,-1.92981 2.20696,-2.09024 -0.54255,-0.24023 -1.09843,-1.11807 -1.88657,-2.38283 -0.78813,-1.26476 -1.48187,-1.87561 -2.63627,-1.96385 -1.15439,-0.0883 -2.05392,0.6504 -2.14279,1.93142 -0.0883,1.28105 0.82619,1.99699 0.82619,1.99699 0,0 -1.00792,0.57887 -1.10242,1.85948 z"
       id="path4136-9-2-4" />
    <path
       inkscape:connector-curvature="0"
       style="fill:#ff7575;fill-opacity:1;fill-rule:evenodd;stroke:none;stroke-width:1px;stroke-linecap:butt;stroke-linejoin:miter;stroke-opacity:1"
       d="m -102.69601,584.42094 c -1.90139,-1.46035 -4.04692,-1.11669 -5.35175,0.60668 -1.30483,1.72334 -1.3099,3.44841 -0.51649,6.11522 0.7934,2.66682 1.33478,4.52994 0.99944,5.58579 0.93109,-0.60027 2.87098,-0.56596 5.65251,-0.49899 2.781526,0.0669 4.444983,-0.3899 5.766271,-2.10067 1.321287,-1.71077 1.091014,-3.87167 -0.816704,-5.32374 -1.907505,-1.45233 -3.962357,-0.75929 -3.962357,-0.75929 0,0 0.13038,-2.16456 -1.77092,-3.625 z"
       id="path4136-4-9-2-2" />
    <path
       inkscape:connector-curvature="0"
       style="fill:#ffcbcb;fill-opacity:1;fill-rule:evenodd;stroke:none;stroke-width:1px;stroke-linecap:butt;stroke-linejoin:miter;stroke-opacity:1"
       d="m -79.55573,587.44265 c -1.945043,0.54512 -2.795574,2.16559 -2.29196,3.91583 0.503618,1.75025 1.664607,2.62467 3.863987,3.43599 2.199381,0.81133 3.729687,1.38781 4.272546,2.14711 0.06523,-0.93111 1.066611,-2.22294 2.516192,-4.06528 1.44958,-1.84234 1.982246,-3.19531 1.495445,-4.95032 -0.486798,-1.75499 -2.060619,-2.69071 -4.00326,-2.13709 -1.942706,0.55337 -2.51249,2.29022 -2.51249,2.29022 0,0 -1.395406,-1.18153 -3.34046,-0.63646 z"
       id="path4136-4-4-9-8-5" />
    <path
       inkscape:connector-curvature="0"
       style="fill:#ffe9e9;fill-opacity:1;fill-rule:evenodd;stroke:none;stroke-width:1px;stroke-linecap:butt;stroke-linejoin:miter;stroke-opacity:1"
       d="m -41.651813,591.5278 c 0.596926,-1.34458 0.08102,-2.57411 -1.135232,-3.1033 -1.216248,-0.52922 -2.245104,-0.28271 -3.720878,0.57572 -1.475787,0.85842 -2.509339,1.45015 -3.187459,1.40269 0.492493,0.46857 0.753224,1.63004 1.115129,3.29852 0.361893,1.66849 0.873725,2.59489 2.084858,3.13571 1.211139,0.54078 2.466554,0.0913 3.05691,-1.25615 0.589847,-1.3477 -0.119606,-2.47271 -0.119606,-2.47271 0,0 1.310004,-0.23562 1.906282,-1.58048 z"
       id="path4136-4-4-5-7-8-5" />
    <path
       inkscape:connector-curvature="0"
       style="fill:#fffbfb;fill-opacity:1;fill-rule:evenodd;stroke:none;stroke-width:1px;stroke-linecap:butt;stroke-linejoin:miter;stroke-opacity:1"
       d="m -17.935935,595.86588 c 0.955466,0.89723 2.141418,0.82583 2.944245,-0.0413 0.802811,-0.8672 0.898194,-1.80583 0.610414,-3.29946 -0.287773,-1.49364 -0.480888,-2.53647 -0.241493,-3.09279 -0.538928,0.27633 -1.592873,0.15348 -3.102505,-0.033 -1.509626,-0.18649 -2.439249,-0.0277 -3.250365,0.83177 -0.811132,0.85941 -0.802874,2.04702 0.156656,2.9399 0.959562,0.89284 2.115601,0.6268 2.115601,0.6268 0,0 -0.188141,1.17103 0.767447,2.06812 z"
       id="path4136-4-4-5-2-9-2-2" />
  </g>
</svg>
